<svg width="382" height="479" viewBox="0 0 382 479" fill="none" xmlns="http://www.w3.org/2000/svg">
<g clip-path="url(#clip0_2:333)">
<g clip-path="url(#clip1_2:333)">
<path d="M262.163 434.125C213.867 434.148 167.031 417.57 129.504 387.169C91.9775 356.769 66.0398 314.394 56.0383 267.146C46.0369 219.897 52.5794 170.647 74.5694 127.648C96.5595 84.6492 132.661 50.5154 176.823 30.9669C220.985 11.4184 270.525 7.64319 317.139 20.2739C363.754 32.9047 404.61 61.1738 432.862 100.344C461.114 139.514 475.044 187.204 472.318 235.422C469.592 283.641 450.375 329.457 417.888 365.193L461.866 414.492L439.92 423.801C405.97 438.201 372.748 424.189 354.101 413.006C325.443 426.898 294.01 434.119 262.163 434.125V434.125ZM262.163 47.5583C165.006 47.5583 85.9625 126.602 85.9625 223.758C85.9625 320.916 165.006 399.959 262.163 399.959C291.769 399.962 320.9 392.51 346.868 378.292L356.263 373.13L364.998 379.345C371.364 383.875 383.919 391.673 398.334 394.597L370.66 363.576L382.791 352.176C400.412 335.763 414.445 315.88 424.009 293.78C433.573 271.68 438.46 247.839 438.363 223.758C438.363 126.602 359.319 47.5583 262.163 47.5583V47.5583Z" fill="#3F3D56"/>
<path d="M455.446 223.758C455.446 117.011 368.91 30.475 262.162 30.475C155.415 30.475 68.8792 117.011 68.8792 223.758C68.8792 330.506 155.415 417.041 262.162 417.041C294.65 417.089 326.621 408.909 355.095 393.265C368.456 402.771 401.05 421.733 433.249 408.074L394.49 364.626C413.757 346.573 429.11 324.754 439.595 300.522C450.081 276.29 455.476 250.162 455.446 223.758Z" fill="#03A9D1"/>
<path opacity="0.1" d="M103.045 222.782C103.045 121.793 180.502 38.9084 279.245 30.2589C273.615 29.7657 267.92 29.4988 262.162 29.4988C155.415 29.4988 68.8792 116.035 68.8792 222.782C68.8792 329.529 155.415 416.065 262.162 416.065C267.912 416.065 273.597 415.795 279.218 415.303C180.488 406.641 103.045 323.762 103.045 222.782Z" fill="black"/>
<path d="M52.037 217.004C61.9975 217.004 70.072 208.93 70.072 198.969C70.072 189.009 61.9975 180.934 52.037 180.934C42.0765 180.934 34.002 189.009 34.002 198.969C34.002 208.93 42.0765 217.004 52.037 217.004Z" fill="#2F2E41"/>
<path d="M117.411 252.51L108.327 243.68L90.0859 249.346L91.8379 270.467L129.344 268.725L117.822 253.069L117.411 252.51Z" fill="#FBBEBE"/>
<path d="M97.5435 252.328C113.647 252.328 126.701 239.274 126.701 223.171C126.701 207.067 113.647 194.013 97.5435 194.013C81.4401 194.013 68.3857 207.067 68.3857 223.171C68.3857 239.274 81.4401 252.328 97.5435 252.328Z" fill="#FBBEBE"/>
<path d="M278.556 289.934C278.556 289.934 314.377 351.493 322.902 360.734C326.956 365.283 331.275 369.587 335.837 373.626C335.837 373.626 331.829 386.92 325.446 386.445C321.808 386.226 318.24 385.347 314.917 383.85C314.917 383.85 312.068 376.465 307.098 373.227C302.129 369.988 261.53 330.047 262.479 317.281C263.428 304.515 278.556 289.934 278.556 289.934Z" fill="#2F2E41"/>
<path d="M150.988 377.781C150.988 377.781 189.181 407.425 241.086 379.57L245.559 376.278C245.559 376.278 238.011 393.26 237.31 397.865C236.498 403.203 216.844 434.475 213.637 435.973C210.43 437.471 209.723 438.853 209.723 438.853L223.334 453.834L228.366 450.131C228.366 450.131 247.988 422.33 253.727 417.244C259.466 412.159 286.81 359.713 286.81 359.713C286.81 359.713 297.264 339.952 271.173 338.465C245.083 336.979 233.077 344.09 233.077 344.09L186.773 351.446L150.988 377.781Z" fill="#2F2E41"/>
<path d="M336.28 370.714L355.598 384.08C355.598 384.08 380.244 391.802 365.062 396.941C349.881 402.079 309.875 403.938 308.967 396.848C308.059 389.759 310.545 378.6 312.541 379.21C314.537 379.82 328.389 383.417 336.28 370.714Z" fill="#2F2E41"/>
<path d="M230.075 445.539L233.651 465.173C233.651 465.173 243.818 484.618 231.611 478.585C219.404 472.551 194.253 449.635 197.967 444.83C201.681 440.026 209.878 434.815 210.71 436.381C211.543 437.947 217.704 448.429 230.075 445.539Z" fill="#2F2E41"/>
<path d="M193.24 357.892C193.24 357.892 167.277 388.204 151.515 380.841C135.753 373.477 71.2659 288.193 78.6292 272.43C85.9925 256.668 88.4614 260.023 88.4614 260.023L121.758 263.102L112.178 247.741C112.178 247.741 116.651 244.449 120.913 249.07C125.176 253.691 142.289 265.232 148.25 281.532C154.212 297.832 171.715 297.018 171.715 297.018L193.24 357.892Z" fill="white"/>
<path d="M298.085 295.388L253.08 343.161L212.764 271.981L251.091 225.674L298.085 295.388Z" fill="#3F3D56"/>
<path d="M294.688 294.871L254.04 336.852L217.206 272.16L250.986 229.631L294.688 294.871Z" fill="white"/>
<path d="M250.875 341.336L253.08 343.161L251.666 345.925L188.735 364.655L188.14 362.499L191.003 359.538L250.875 341.336Z" fill="#B3B3B3"/>
<path d="M253.639 342.75L188.472 363.125L148.747 288.062L212.764 271.981L253.639 342.75Z" fill="#D0CDE1"/>
<path d="M248.733 332.569L245.937 334.626L214.907 280.748L218.114 279.25L248.733 332.569Z" fill="#3F3D56"/>
<path d="M242.318 335.565L214.751 343.785L183.457 288.377L210.729 282.099L242.318 335.565Z" fill="#3F3D56"/>
<path d="M164.657 294.455L170.364 292.841C170.364 292.841 202.194 289.241 202.659 299.243C203.123 309.245 166.092 304.604 166.092 304.604L161.154 297.895L164.657 294.455Z" fill="#FBBEBE"/>
<path d="M192.575 339.419L200.519 336.158C200.519 336.158 224.499 325.406 217.62 318.401C210.741 311.396 189.525 323.562 189.525 323.562L185.463 327.413L192.575 339.419Z" fill="#FBBEBE"/>
<path d="M185.495 323.942C185.495 323.942 198.43 336.833 195.486 339.862C192.543 342.89 144.278 382.719 132.313 369.975C120.349 357.231 62.0559 293.247 84.7385 287.759C107.421 282.272 113.414 295.101 113.414 295.101L143.358 346.331L185.495 323.942Z" fill="white"/>
<path d="M146.763 284.781L168.011 291.986L167.664 307.326L145.192 304.901L146.763 284.781Z" fill="white"/>
<path opacity="0.2" d="M165.914 331.887L143.021 345.287L116.865 305.06L142.113 338.197L165.914 331.887Z" fill="black"/>
<path d="M84.7453 249.43C103.916 249.43 119.457 233.889 119.457 214.718C119.457 195.548 103.916 180.007 84.7453 180.007C65.5746 180.007 50.0337 195.548 50.0337 214.718C50.0337 233.889 65.5746 249.43 84.7453 249.43Z" fill="#2F2E41"/>
<path d="M272.3 298.417L247.995 262.862L258.298 250.108L283.553 286.688L272.3 298.417Z" fill="#03A9D1"/>
<path d="M271.615 312.712L234.613 258.919L236.438 256.714L273.267 310.634L271.615 312.712Z" fill="#E6E6E6"/>
<path d="M266.847 317.945L229.845 264.152L231.67 261.947L268.499 315.868L266.847 317.945Z" fill="#E6E6E6"/>
<path d="M262.785 321.796L225.783 268.003L227.608 265.798L264.437 319.719L262.785 321.796Z" fill="#E6E6E6"/>
<path d="M100.117 191.544H110.855C116.292 191.544 121.506 193.704 125.35 197.549C129.195 201.393 131.355 206.607 131.355 212.044V212.044H100.117V191.544Z" fill="#2F2E41"/>
<path d="M299.281 38.4982L300.833 39.6832C303.161 36.6341 305.593 33.5902 308.06 30.6359L306.562 29.3842C304.076 32.3604 301.626 35.4267 299.281 38.4982Z" fill="#3F3D56"/>
<path d="M314.236 20.6005L315.678 21.917C318.268 19.0805 320.957 16.2635 323.67 13.5432L322.287 12.1648C319.554 14.9045 316.846 17.743 314.236 20.6005Z" fill="#3F3D56"/>
<path d="M330.7 4.09177L332.021 5.5303C334.853 2.92922 337.778 0.36007 340.713 -2.10611L339.458 -3.60086C336.501 -1.1166 333.554 1.47208 330.7 4.09177Z" fill="#3F3D56"/>
<path d="M285.956 57.6514L287.606 58.6943C289.658 55.4478 291.813 52.2004 294.01 49.0417L292.408 47.9263C290.193 51.1089 288.023 54.3806 285.956 57.6514Z" fill="#3F3D56"/>
<path d="M274.371 77.9157L276.107 78.808C277.865 75.3875 279.725 71.9604 281.634 68.6224L279.939 67.653C278.016 71.0162 276.142 74.469 274.371 77.9157Z" fill="#3F3D56"/>
</g>
</g>
<defs>
<clipPath id="clip0_2:333">
<rect width="490" height="633" fill="white" transform="translate(0 -154)"/>
</clipPath>
<clipPath id="clip1_2:333">
<rect width="883.929" height="713.746" fill="white" transform="translate(34 -234)"/>
</clipPath>
</defs>
</svg>
